<?xml version="1.0" encoding="utf-8"?>
<!-- Generator: Adobe Illustrator 25.0.1, SVG Export Plug-In . SVG Version: 6.00 Build 0)  -->
<svg version="1.0" id="katman_1" xmlns="http://www.w3.org/2000/svg" xmlns:xlink="http://www.w3.org/1999/xlink" x="0px" y="0px"
	 viewBox="0 0 1404.8 972.7" style="enable-background:new 0 0 1404.8 972.7;" xml:space="preserve">
<style type="text/css">
	.st0{fill-rule:evenodd;clip-rule:evenodd;fill:#1D1D1B;}
	.st1{fill-rule:evenodd;clip-rule:evenodd;fill:#CF1D39;}
	.st2{fill-rule:evenodd;clip-rule:evenodd;fill:#FFFFFF;}
</style>
<path class="st0" d="M330.8,488.1h-24.2h-9.9v-37.6h34.1c12,0,18.3,9.5,18.3,18.8C349.1,476.6,344.2,488.1,330.8,488.1z
	 M330.4,417.5h-59.6c-5.2,0-9.3,4.3-9.3,9.6v128.7h23c6.9,0,12.5-5.8,12.5-12.9v-21.2h28.6l23.2,34.1h38.5l-27.8-40.4l3.2-2.1
	c13-8.4,21.8-26,21.8-43.8C384.4,433.8,356.4,417.5,330.4,417.5z"/>
<path class="st0" d="M174.8,555.8h23c6.9,0,12.5-5.8,12.5-12.9v-83.4v-8.7h32.5c5.9,0,10.6-4.9,10.6-10.9v-22.5H138.6
	c-3.8,0-6.8,3.1-6.8,7v26.4h43.1V555.8z"/>
<path class="st0" d="M432.1,555.8h23c6.9,0,12.5-5.8,12.5-12.9v-92.1H500c5.9,0,10.6-4.9,10.6-10.9v-22.5H395.8
	c-3.8,0-6.8,3.1-6.8,7v26.4h43.1V555.8z"/>
<path class="st1" d="M1272.4,586.3H579.1c-24,0-43.5-19.5-43.5-43.5V387H1229c24,0,43.5,19.5,43.5,43.5V586.3z"/>
<path class="st2" d="M583.7,418.1h24.4v54.6h57.7v-45.8c0-5.7,3.1-8.8,8.8-8.8H699v128.6c0,5.7-3.1,8.8-8.8,8.8h-24.4v-52.6h-57.7
	v43.8c0,5.7-3.1,8.8-8.8,8.8h-24.3V426.9C574.9,421.2,578,418.1,583.7,418.1z"/>
<path class="st2" d="M763.4,503.9h36.9L781.9,455L763.4,503.9z M708.8,555.5L761.1,425c1.8-4.7,5.3-6.9,10.2-6.9h28.5l55.2,137.5
	h-27.9c-5.1,0-8.2-2.2-10-7.1l-6.3-16.5H753l-6.3,16.5c-1.8,4.9-4.9,7.1-10,7.1H708.8z"/>
<path class="st2" d="M934.1,527.1c11.2,0,16.3-5.5,16.3-14.1c0-8.6-5.1-14.1-16.3-14.1h-36.5v28.3H934.1z M929.8,473.7
	c9.2,0,15.3-4.5,15.3-13.6c0-9-6.1-13.5-15.3-13.5h-32.2v27.1H929.8z M865.4,555.5V426.9c0-5.7,3.1-8.8,8.8-8.8h60.5
	c26.5,0,43.4,16.1,43.4,37.7c0,12.6-5.3,22.6-13.4,28.3c9.4,5.7,18.7,17.9,18.7,33c0,22.4-15.5,38.5-41.6,38.5H865.4z"/>
<path class="st2" d="M1000.8,555.5V426.9c0-5.7,3.1-8.8,8.8-8.8h94.9v20.8c0,5.7-3.1,8.8-8.8,8.8h-61.9v24.7h58.9v20.8
	c0,5.7-3.1,8.8-8.8,8.8h-50.1v23.8h70.7v20.8c0,5.7-3.1,8.8-8.8,8.8H1000.8z"/>
<path class="st2" d="M1184.6,487.9c12.4,0,21.2-8.4,21.2-20.2c0-11.8-8.8-20.2-21.2-20.2H1153v40.5H1184.6z M1119.8,555.3V426.6
	c0-4.9,4-8.8,8.8-8.8h56.4c32.2,0,54.4,19.3,54.4,49.9c0,21.6-11.6,38.3-28.5,45.2l29.5,42.4h-37.1l-25.9-37.7H1153v26.3
	c0,6.3-5.1,11.4-11,11.4H1119.8z"/>
</svg>
